HIERARCHY
ROOT root
{
	OFFSET 0.000000 0.000000 0.000000
	CHANNELS 6 Xposition Yposition Zposition Zrotation Yrotation Xrotation
	JOINT lhip
	{
		OFFSET 0.058581 -0.082280 -0.017664
		CHANNELS 3 Zrotation Yrotation Xrotation
		JOINT lknee
		{
			OFFSET 0.043451 -0.386469 0.008037
			CHANNELS 3 Zrotation Yrotation Xrotation
			JOINT lankle
			{
				OFFSET -0.014790 -0.426874 -0.037428
				CHANNELS 3 Zrotation Yrotation Xrotation
				JOINT ltoe
				{
					OFFSET 0.041054 -0.060286 0.122042
					CHANNELS 3 Zrotation Yrotation Xrotation
					End Site
					{
						OFFSET 0.000000 0.000000 0.000000
					}
				}
			}
		}
	}
	JOINT rhip
	{
		OFFSET -0.060310 -0.090513 -0.013543
		CHANNELS 3 Zrotation Yrotation Xrotation
		JOINT rknee
		{
			OFFSET -0.043257 -0.383688 -0.004843
			CHANNELS 3 Zrotation Yrotation Xrotation
			JOINT rankle
			{
				OFFSET 0.019056 -0.420046 -0.034562
				CHANNELS 3 Zrotation Yrotation Xrotation
				JOINT rtoe
				{
					OFFSET -0.034840 -0.062106 0.130323
					CHANNELS 3 Zrotation Yrotation Xrotation
					End Site
					{
						OFFSET 0.000000 0.000000 0.000000
					}
				}
			}
		}
	}
	JOINT lowerback
	{
		OFFSET 0.004439 0.124404 -0.038385
		CHANNELS 3 Zrotation Yrotation Xrotation
		JOINT upperback
		{
			OFFSET 0.004488 0.137956 0.026820
			CHANNELS 3 Zrotation Yrotation Xrotation
			JOINT chest
			{
				OFFSET -0.002265 0.056032 0.002855
				CHANNELS 3 Zrotation Yrotation Xrotation
				JOINT lowerneck
				{
					OFFSET -0.013390 0.211636 -0.033468
					CHANNELS 3 Zrotation Yrotation Xrotation
					JOINT upperneck
					{
						OFFSET 0.010113 0.088937 0.050410
						CHANNELS 3 Zrotation Yrotation Xrotation
						End Site
						{
							OFFSET 0.000000 0.000000 0.000000
						}
					}
				}
				JOINT lclavicle
				{
					OFFSET 0.071702 0.114000 -0.018898
					CHANNELS 3 Zrotation Yrotation Xrotation
					JOINT lshoulder
					{
						OFFSET 0.122921 0.045205 -0.019046
						CHANNELS 3 Zrotation Yrotation Xrotation
						JOINT lelbow
						{
							OFFSET 0.255332 -0.015649 -0.022946
							CHANNELS 3 Zrotation Yrotation Xrotation
							JOINT lwrist
							{
								OFFSET 0.265709 0.012698 -0.007375
								CHANNELS 3 Zrotation Yrotation Xrotation
								End Site
								{
									OFFSET 0.000000 0.000000 0.000000
								}
							}
						}
					}
				}
				JOINT rclavicle
				{
					OFFSET -0.082954 0.112472 -0.023707
					CHANNELS 3 Zrotation Yrotation Xrotation
					JOINT rshoulder
					{
						OFFSET -0.113228 0.046853 -0.008472
						CHANNELS 3 Zrotation Yrotation Xrotation
						JOINT relbow
						{
							OFFSET -0.260127 -0.014369 -0.031269
							CHANNELS 3 Zrotation Yrotation Xrotation
							JOINT rwrist
							{
								OFFSET -0.269108 0.006794 -0.006027
								CHANNELS 3 Zrotation Yrotation Xrotation
								End Site
								{
									OFFSET 0.000000 0.000000 0.000000
								}
							}
						}
					}
				}
			}
		}
	}
}
MOTION
Frames: 14
Frame Time: 0.033333
1.287010 0.725817 0.984531 -86.593963 -0.999012 84.374969 -1.616458 -3.169520 -0.044198 -0.035492 -9.233175 9.030315 2.986361 9.453333 -13.766743 0.000000 -0.000000 0.000000 1.638211 -4.168460 1.792431 -4.718498 -1.973980 9.424308 2.847065 -8.970966 -15.955374 0.000000 -0.000000 0.000000 -0.137540 5.822086 9.712513 -2.933713 0.442506 -0.743854 0.497347 1.087286 -0.224228 0.068319 31.414648 -9.990292 -3.365015 26.194476 -4.503037 -26.200206 -7.468521 0.425298 -51.279025 -6.635334 12.860817 -5.869329 -21.877473 19.664383 -5.307586 -2.387972 0.951844 22.690210 5.238541 5.344665 62.504224 3.720398 20.547506 -3.779321 28.050531 14.034360 6.059192 -0.210308 0.030687 
1.286920 0.725507 0.984217 -85.365799 -0.602648 84.004759 -1.423016 -3.888775 -0.023063 0.026304 -9.805495 9.518244 2.489659 9.397023 -13.869048 0.000000 -0.000000 0.000000 2.093247 -2.854218 2.630816 -4.457147 -3.361519 8.983875 2.748387 -10.434143 -15.771960 0.000000 -0.000000 0.000000 0.224827 5.164611 10.541426 -2.696819 0.071974 -1.328138 0.479581 0.854556 0.019825 0.139733 31.219483 -9.608981 -3.792439 26.386774 -5.020908 -26.422660 -7.374025 0.676552 -51.418761 -7.071451 12.846149 -5.491295 -21.789712 19.875643 -3.807151 -2.970570 1.930144 22.713812 5.233529 5.013327 62.340833 3.526902 21.014185 -3.625470 27.820133 13.869370 1.890420 1.179602 -0.099157 
1.284480 0.725241 0.984029 -85.773789 -0.733157 83.875662 -1.634874 -3.580710 0.721932 0.254279 -9.768489 8.765767 2.291727 9.360496 -13.779364 0.000000 -0.000000 0.000000 2.051085 -2.402199 2.938977 -4.551401 -3.530360 8.996338 2.808073 -10.193995 -15.873493 0.000000 -0.000000 0.000000 0.132517 5.255100 10.187960 -2.782424 0.326662 -0.884053 0.487436 0.914128 -0.030901 0.167129 31.224766 -9.554330 -3.651342 26.265904 -5.137906 -26.238373 -7.531308 0.562240 -51.641194 -6.696576 13.070317 -5.356911 -22.108324 19.735689 -5.141558 -2.717375 1.772089 22.490043 5.035343 4.888035 62.769199 3.474878 20.747091 -4.551691 29.084430 13.445470 7.038465 -1.084479 -1.572167 
1.283825 0.725312 0.983898 -85.802903 -0.715480 83.845595 -1.659321 -3.515669 0.805128 0.375794 -9.795534 8.750217 2.287722 9.407628 -13.852866 0.000000 -0.000000 0.000000 2.173003 -2.434480 3.064730 -4.667410 -3.576190 8.863718 2.810760 -10.095111 -15.727625 0.000000 -0.000000 0.000000 0.116221 5.275610 10.253805 -2.798015 0.332331 -0.827269 0.519188 0.999673 -0.061900 0.051332 31.003031 -9.587509 -3.751337 26.150009 -5.265599 -25.973861 -7.520786 0.394059 -51.940426 -6.803209 13.149426 -5.411098 -22.152331 20.037042 -5.180522 -2.510518 1.713033 22.273008 5.048273 4.612659 63.082078 3.352012 20.803393 -4.570791 29.011554 13.600811 7.369615 -1.223392 -1.799556 
1.283329 0.725416 0.983774 -85.771354 -0.724867 83.862649 -1.625727 -3.529449 0.843337 0.336727 -9.749489 8.662853 2.311951 9.280880 -13.696426 0.000000 -0.000000 0.000000 2.169925 -2.507068 3.107821 -4.645191 -3.565094 8.783339 2.719862 -10.127974 -15.796551 0.000000 -0.000000 0.000000 0.082612 5.305775 10.195967 -2.768195 0.312241 -0.877547 0.508096 1.004969 -0.075239 0.128144 31.095004 -9.950894 -3.403688 25.895130 -4.444175 -25.943628 -7.670993 0.566188 -51.987647 -6.831330 13.129575 -5.291572 -22.058393 19.974264 -5.340225 -2.672392 1.740827 22.299400 5.207048 4.843083 63.142983 3.361781 20.754714 -4.838235 29.017975 13.528715 7.762229 -1.237176 -1.852697 
1.282762 0.725535 0.983862 -85.726169 -0.716200 83.833392 -1.589596 -3.397199 0.947537 0.325274 -9.928879 8.622882 2.134815 9.181499 -13.920875 0.000000 -0.000000 0.000000 2.241444 -2.554120 3.272884 -4.723860 -3.563284 8.599367 2.773306 -10.086838 -15.695372 0.000000 -0.000000 0.000000 0.093932 5.317833 10.360681 -2.803553 0.269782 -0.932956 0.538979 0.937159 -0.105383 -0.083484 30.918675 -9.824935 -3.769743 25.943139 -5.122752 -25.908260 -7.633642 0.391542 -52.000823 -6.745432 13.166366 -5.343750 -21.992004 20.266929 -4.856988 -2.607005 1.951066 22.257095 5.201638 4.576154 63.137357 3.207020 20.826762 -4.491866 29.053897 13.504296 6.772700 -1.128295 -1.984119 
1.282289 0.725674 0.983960 -85.714301 -0.746815 83.830200 -1.614172 -3.388576 0.995295 0.365484 -9.853446 8.592950 2.033222 9.151799 -13.980160 0.000000 -0.000000 0.000000 2.275166 -2.443104 3.396189 -4.782142 -3.662675 8.437679 2.841837 -10.079318 -15.706887 0.000000 -0.000000 0.000000 0.101730 5.228267 10.567852 -2.869980 0.199838 -1.146319 0.520872 0.914224 -0.171839 -0.278016 30.902575 -10.144269 -3.749686 25.884229 -4.965448 -25.814667 -7.662570 0.526885 -52.065459 -6.624220 13.073591 -5.145763 -22.118015 20.118223 -4.983815 -2.848393 2.078807 22.210742 5.398401 4.526643 63.254953 3.072990 20.921071 -4.488756 29.012940 13.472332 6.997596 -1.141640 -2.319042 
1.281936 0.726115 0.983629 -85.722025 -0.738207 83.970635 -1.551393 -3.421687 0.867228 0.338030 -9.791619 8.563976 2.079987 9.110134 -13.879666 0.000000 -0.000000 0.000000 2.339370 -2.448752 3.272710 -4.829058 -3.696533 8.411848 2.737923 -10.105708 -15.684732 0.000000 -0.000000 0.000000 0.038508 5.197559 10.506897 -2.853712 0.206537 -1.284138 0.551747 0.917395 -0.214483 -0.382530 30.833795 -10.311456 -3.638128 25.788701 -4.851273 -25.893516 -7.643059 0.556531 -52.068852 -6.592879 13.036620 -5.125333 -22.127727 19.926237 -5.317306 -2.612628 1.850937 22.322812 5.419345 4.566499 63.198619 2.979135 20.970620 -4.610103 29.077182 13.510654 7.479764 -1.160189 -2.385285 
1.281740 0.726252 0.983469 -85.767756 -0.773184 83.958671 -1.621387 -3.427066 0.891347 0.411214 -9.745469 8.582638 2.019490 9.117983 -13.865638 0.000000 -0.000000 0.000000 2.326055 -2.386785 3.353662 -4.848168 -3.713114 8.294373 2.813434 -10.091415 -15.563682 0.000000 -0.000000 0.000000 0.071552 5.159517 10.734858 -2.913357 0.140297 -1.497668 0.515023 0.949605 -0.313937 -0.396811 30.809533 -10.568239 -3.452417 25.655053 -4.470410 -25.977191 -7.851034 0.758820 -51.995471 -6.463889 13.023545 -4.809011 -21.918250 20.135709 -4.661985 -3.222441 2.730480 22.402635 5.703549 4.664055 63.209056 2.819160 20.968148 -4.560812 28.861153 13.688200 6.826552 -0.762696 -2.263536 
1.281654 0.726557 0.983411 -85.713768 -0.739801 84.090451 -1.571601 -3.516676 0.699211 0.385085 -9.801725 8.728150 2.220803 9.189224 -13.948534 0.000000 -0.000000 0.000000 2.402094 -2.401918 3.292628 -4.863126 -3.635304 8.157218 2.814023 -10.167517 -15.502637 0.000000 -0.000000 0.000000 0.048648 5.072295 10.604644 -2.871753 0.113031 -1.620090 0.494131 1.020138 -0.231056 -0.373740 30.576273 -10.616427 -3.493140 25.444604 -4.520817 -26.081274 -7.669642 0.660951 -51.895639 -6.683414 13.013228 -5.067621 -21.726741 20.103379 -4.368693 -3.130901 2.751961 22.579080 5.691113 4.629590 63.012167 2.785197 21.152074 -4.306951 28.535189 14.087383 5.527698 -0.156626 -1.214212 
1.281360 0.726605 0.983456 -85.722910 -0.759562 84.061395 -1.561204 -3.529841 0.780043 0.334594 -9.789766 8.702200 2.186400 9.243158 -13.972637 0.000000 -0.000000 0.000000 2.352270 -2.501811 3.375174 -4.825155 -3.562747 8.088693 2.770096 -10.177360 -15.470821 0.000000 -0.000000 0.000000 0.048098 5.083031 10.599756 -2.887254 0.101381 -1.656797 0.513564 1.033875 -0.235506 -0.318867 30.404095 -10.508585 -3.414364 25.424921 -4.568588 -26.067461 -7.516770 0.551140 -51.904062 -6.766116 12.896537 -5.508541 -22.028841 19.434741 -5.081377 -2.262661 1.574014 22.580085 5.610136 4.620277 62.992030 2.776990 21.209248 -4.367348 28.583687 14.026425 6.284988 -0.751544 -1.019287 
1.281303 0.726794 0.983551 -85.827304 -0.759204 83.980444 -1.564210 -3.442345 0.874829 0.404103 -9.720574 8.708288 1.980004 9.220744 -14.166551 0.000000 -0.000000 0.000000 2.395467 -2.400343 3.482132 -4.877083 -3.581463 8.065819 2.889719 -10.149576 -15.532384 0.000000 -0.000000 0.000000 0.052932 5.098472 10.744229 -2.891259 0.084869 -1.667921 0.508222 1.019958 -0.324090 -0.262233 30.461640 -10.668022 -3.413914 25.335214 -4.416715 -26.137844 -7.691940 0.734799 -51.790303 -6.557396 13.027129 -5.179819 -21.895752 20.246491 -4.298537 -3.453182 2.786140 22.599498 5.731665 4.579172 62.956673 2.696004 21.120248 -4.199169 28.474586 14.181729 5.455706 -0.109427 -1.101752 
1.281171 0.726707 0.983579 -85.863624 -0.775367 83.944768 -1.583308 -3.410228 0.939524 0.368699 -9.757193 8.713895 2.071542 9.159874 -14.096622 0.000000 -0.000000 0.000000 2.351024 -2.450003 3.524460 -4.845100 -3.552853 8.072507 2.870588 -10.149999 -15.496628 0.000000 -0.000000 0.000000 0.085084 5.084669 10.712584 -2.906645 0.087281 -1.644722 0.488220 1.004620 -0.319664 -0.295156 30.427562 -10.668654 -3.410020 25.348450 -4.419999 -26.038905 -7.589635 0.619254 -51.915776 -6.576351 13.030901 -5.304040 -21.917125 20.312884 -4.621078 -3.192067 2.463543 22.480981 5.626834 4.465750 63.032366 2.709361 21.154671 -4.170454 28.664922 14.163491 5.969436 -0.545905 -1.401732 
1.281050 0.726658 0.983590 -85.949228 -0.774416 83.948213 -1.590499 -3.312183 0.940392 0.402961 -9.745934 8.752171 2.057579 9.246703 -14.134091 0.000000 -0.000000 0.000000 2.341839 -2.422513 3.511284 -4.847173 -3.522202 8.103468 2.914270 -10.040151 -15.569521 0.000000 -0.000000 0.000000 0.145870 5.088966 10.736024 -2.914259 0.074567 -1.803431 0.454606 0.942320 -0.270397 -0.339918 30.520248 -10.706460 -3.382709 25.330796 -4.362618 -25.908212 -7.566003 0.594627 -51.979779 -6.498096 13.143229 -5.428764 -21.892572 20.505053 -4.810226 -3.148989 2.108305 22.288336 5.277105 4.330467 63.155436 2.873073 21.060781 -3.901365 29.035544 14.226544 6.526735 -1.008999 -2.449720 
